<?xml version="1.0" encoding="utf-8"?>
<!-- Generator: Adobe Illustrator 23.0.6, SVG Export Plug-In . SVG Version: 6.00 Build 0)  -->
<svg version="1.1" id="Capa_1" xmlns="http://www.w3.org/2000/svg" xmlns:xlink="http://www.w3.org/1999/xlink" x="0px" y="0px"
	 viewBox="0 0 17.57 9" style="enable-background:new 0 0 17.57 9;" xml:space="preserve">
<style type="text/css">
	.st0{fill-rule:evenodd;clip-rule:evenodd;}
	.st1{fill-rule:evenodd;clip-rule:evenodd;fill:#FFFFFF;}
	
		.st2{fill-rule:evenodd;clip-rule:evenodd;fill:#FFFFFF;stroke:#232321;stroke-linecap:round;stroke-linejoin:round;stroke-miterlimit:10;}
	.st3{fill:#FFFFFF;}
	.st4{fill:#232321;}
	.st5{fill:#070809;}
	.st6{fill:none;stroke:#070809;stroke-linecap:round;stroke-linejoin:round;stroke-miterlimit:10;}
</style>
<g>
	
		<rect x="2.84" y="5.96" transform="matrix(1 -7.610338e-03 7.610338e-03 1 -0.0485 0.0265)" class="st0" width="1.22" height="0.86"/>
</g>
<g>
	
		<rect x="4.9" y="1.06" transform="matrix(1 -7.610338e-03 7.610338e-03 1 -0.0119 0.0406)" class="st0" width="0.87" height="1.07"/>
</g>
<g>
	<g>
		<polyline class="st1" points="10.82,0.55 11.19,0.22 13.7,0.2 13.52,0.94 12.92,1.32 		"/>
	</g>
	<g>
		<path d="M13.74,0.21l-0.17,0.74c0,0.01-0.01,0.02-0.02,0.03l-0.6,0.38c-0.01,0-0.02,0.01-0.03,0.01c-0.02,0-0.03-0.01-0.04-0.02
			c-0.01-0.02-0.01-0.05,0.01-0.07l0.59-0.37l-0.56,0.41l-1.73-0.57l-0.34-0.17c-0.02,0.02-0.05,0.02-0.07,0
			c-0.02-0.02-0.02-0.05,0-0.07l0.37-0.33c0.01-0.01,0.02-0.01,0.03-0.01l2.56-0.02"/>
	</g>
</g>
<g>
	<g>
		<polyline class="st0" points="9.65,4.13 10.01,3.79 9.83,0.18 8.36,0.19 7.83,0.57 		"/>
	</g>
	<g>
		<path d="M9.87,0.12l0.19,3.66c0,0.02,0,0.02-0.01,0.03L9.67,4.17c-0.01,0.01,0-0.03-0.02-0.03c-0.01,0-0.02,0.03-0.03,0.02
			c-0.02-0.02-0.02-0.05,0-0.07l0.34-0.32L9.78,0.23L8.37,0.24L7.86,0.61c-0.02,0.02-0.04,0.02-0.05,0c-0.02-0.02-0.02-0.06,0-0.07
			l0.55-0.39"/>
	</g>
</g>
<g>
	<g>
		<path class="st0" d="M4.46,0.62l0.69-0.44c0,0,1.5-0.44,1.94,0.61c0,0,0.36,1.18-1.11,1.6"/>
	</g>
	<g>
		<path d="M5.98,2.45c-0.02,0-0.04-0.01-0.05-0.03C5.93,2.39,5.94,2.36,5.97,2.35c0.47-0.14,0.8-0.37,0.98-0.69
			c0.23-0.42,0.1-0.85,0.1-0.85C6.64-0.15,5.27,0.2,5.17,0.23L4.49,0.66C4.47,0.68,4.44,0.67,4.42,0.65
			C4.41,0.62,4.41,0.59,4.44,0.58l0.69-0.44c0,0,0.01,0,0.01-0.01c0.02,0,1.55-0.44,2,0.64C7.14,0.8,7.27,1.26,7.03,1.71
			C6.84,2.05,6.49,2.3,5.99,2.45C5.99,2.45,5.99,2.45,5.98,2.45z"/>
	</g>
</g>
<g>
	<g>
		<polygon class="st0" points="2.19,2.8 2.57,2.53 3.38,2.55 2.84,2.92 		"/>
	</g>
	<g>
		<path d="M3.46,2.54L2.99,3.06C2.98,3.07,2.97,3.07,2.96,3.07c0,0-0.01,0-0.01,0L2.2,2.95c-0.02,0-0.03-0.02-0.04-0.03
			C2.16,2.9,2.06,2.77,2.08,2.76l0.3-0.22c0.01-0.01,0.2-0.01,0.21-0.01 M2.6,2.62L2.32,2.87l0.63,0.1"/>
	</g>
</g>
<g>
	<g>
		<path class="st0" d="M2.33,1.63C2.5,1.59,2.14,1.42,2.14,1.42s0.43,0.08-0.06,0C1.49,1.33,1.29,2.14,1.29,2.14
			C1.04,3.62,1.91,3.15,1.85,2.95C1.54,2.7,1.71,1.78,2.33,1.63z"/>
	</g>
	<g>
		<path d="M1.71,3.06c-0.15,0-0.27-0.05-0.35-0.15c-0.12-0.15-0.14-0.4-0.07-0.75C1.3,2.13,1.49,1.4,2.03,1.4
			c0.03,0,0.07,0,0.11,0.01l0.03,0c0.01-0.01,0.02-0.01,0.03,0c0.22,0.04,0.22,0.04,0.22,0.09c0,0.01-0.01,0.02-0.02,0.03
			c0.09,0.07,0.08,0.1,0.08,0.12c0,0.02-0.02,0.06-0.09,0.07C1.87,1.79,1.76,2.19,1.78,2.56c0.01,0.2,0.05,0.24,0.1,0.38
			c0,0,0,0,0.01,0c0.02-0.01,0.05,0.01,0.06,0.03c0.01,0.02,0,0.05-0.03,0.06l0,0c0,0,0,0,0,0l0,0l0,0c0,0,0,0,0,0
			C1.89,3.04,1.81,3.06,1.71,3.06z M2.03,1.49c-0.47,0-0.64,0.68-0.65,0.69C1.32,2.5,1.33,2.73,1.44,2.85
			C1.5,2.93,1.59,2.97,1.71,2.96c0.02,0,0.03,0,0.05,0C1.7,2.88,1.66,2.74,1.65,2.6C1.62,2.2,1.79,1.71,2.36,1.62
			C2.34,1.59,2.28,1.56,2.2,1.51L2.12,1.5C2.09,1.5,2.06,1.49,2.03,1.49z"/>
	</g>
</g>
<g>
	<g>
		<path class="st0" d="M1.23,0.59c0,0,1.14-0.92,2.19-0.31c0,0,0.5,0.29,0.38,1.14L3.28,1.86c0,0,0.4-1.11-0.55-1.48
			C2.73,0.38,1.97,0.18,1.23,0.59z"/>
	</g>
	<g>
		<path d="M3.31,1.96C3.3,1.97,3.22,1.94,3.21,1.94c-0.01,0-0.02,0-0.03-0.01C3.17,1.92,3.16,1.89,3.17,1.87c0,0,0.1-0.27,0.08-0.58
			C3.22,0.88,3.02,0.6,2.65,0.46c0,0,0,0,0,0c0,0-0.19-0.05-0.47-0.05c-0.25,0-0.63,0.05-1,0.25C1.16,0.67,1.13,0.67,1.12,0.65
			C1.1,0.63,1.11,0.6,1.13,0.58c0.03-0.02,0.65-0.52,1.42-0.53c0.3,0,0.57,0.07,0.83,0.22c0.02,0.01,0.57,0.39,0.44,1.26 M2.18,0.32
			c0.29,0,0.49,0.05,0.5,0.05c0.77,0.3,0.7,1.06,0.62,1.39l0.38-0.32c0.11-0.79-0.34-1.06-0.36-1.08c-0.24-0.14-0.5-0.21-0.78-0.21
			c-0.35,0-0.67,0.12-0.91,0.23C1.81,0.34,1.99,0.32,2.18,0.32z"/>
	</g>
</g>
<g>
	<g>
		<polyline class="st0" points="5.85,2.48 6.51,3.82 6.16,4.11 		"/>
	</g>
	<g>
		<path d="M6.16,4.16c-0.01,0-0.03-0.01-0.04-0.02C6.1,4.12,6.11,4.09,6.13,4.07l0,0C6.09,3.93,5.38,2.78,5.45,2.57L5.81,2.5
			c-0.01-0.02,0-0.05,0.02-0.06c0.02-0.01,0.05,0,0.06,0.02L6.55,3.8c0.01,0.02,0,0.04-0.01,0.06L6.19,4.15
			C6.18,4.16,6.17,4.16,6.16,4.16z"/>
	</g>
</g>
<g>
	<g>
		<polyline class="st0" points="7.76,4.15 8.24,3.88 8.43,3.09 		"/>
	</g>
	<g>
		<path d="M7.76,4.2c-0.02,0-0.03-0.01-0.04-0.02C7.71,4.16,7.71,4.13,7.74,4.11l0.01-0.36l0.2-0.77c0.01-0.03,0.47,0.07,0.5,0.07
			C8.47,3.05,8.5,2.99,8.5,3.01L8.29,3.89c0,0.01-0.01,0.02-0.02,0.03L7.79,4.2C7.78,4.2,7.77,4.2,7.76,4.2z"/>
	</g>
</g>
<g>
	<g>
		<line class="st3" x1="11.54" y1="3.04" x2="12.13" y2="2.73"/>
	</g>
	<g>
		<rect x="11.5" y="2.83" transform="matrix(0.8818 -0.4716 0.4716 0.8818 0.0396 5.9224)" class="st4" width="0.66" height="0.1"/>
	</g>
</g>
<g>
	<g>
		<polyline class="st3" points="12.75,4.02 13.3,3.53 13.43,2.72 12.13,2.73 		"/>
	</g>
	<g>
		<path d="M13.48,2.67l-0.13,0.87c0,0.02,0,0.02-0.02,0.03l-0.55,0.49c-0.01,0.01-0.02-0.07-0.04-0.07c-0.01,0-0.03,0.03-0.04,0.02
			C12.69,3.99,12.7,4,12.72,3.98l0.03-0.23l0.02-0.56l-1.21-0.1c-0.03,0,0.52-0.33,0.52-0.36c0-0.03,0.02-0.05,0.05-0.05l1.3-0.01"
			/>
	</g>
</g>
<g>
	<g>
		<polygon points="12.17,2.75 11.37,3.13 13.01,0.93 13.56,0.97 		"/>
	</g>
</g>
<g>
	<g>
		<polyline points="14.81,0.55 15.16,0.14 15.59,1.18 		"/>
	</g>
	<g>
		<path d="M15.19,0.1l0.45,1.06c0.01,0.02,0,0.05-0.03,0.06c-0.01,0-0.01,0-0.02,0c-0.02,0-0.04-0.01-0.04-0.03l-0.21,0.65
			l-0.49-1.27C14.83,0.6,14.8,0.6,14.78,0.58c-0.02-0.02-0.02-0.05-0.01-0.07"/>
	</g>
</g>
<g>
	<g>
		<polyline class="st3" points="13.9,0.55 14.37,0.15 15.16,0.14 		"/>
	</g>
	<g>
		<path d="M15.18,0.1l-0.12,0.64l-1.13-0.15C13.92,0.6,13.91,0.6,13.9,0.6c-0.01,0,0.03-0.06,0.03-0.07
			c0.01-0.02-0.09-0.02-0.1-0.02l0.5-0.43"/>
	</g>
</g>
<g>
	<g>
		<polyline points="15.31,4.08 15.89,3.63 17.37,0.08 16.34,0.08 15.9,0.44 		"/>
	</g>
	<g>
		<path d="M17.43,0.04l-1.5,3.61c0,0.01-0.01,0.01-0.01,0.02l-0.57,0.45c-0.01,0.01-0.02,0.01-0.03,0.01
			c-0.01,0-0.03-0.01-0.04-0.02c-0.02-0.02-0.01-0.05,0.01-0.07l0.56-0.45l1.45-3.47l-0.94,0.01l-0.43,0.39
			c-0.02,0.02-0.08,0.02-0.07,0c0.02-0.02-0.01-0.06,0.01-0.08l0.44-0.4"/>
	</g>
</g>
<g>
	<g>
		<line class="st3" x1="7.74" y1="4.9" x2="7.34" y2="5.32"/>
	</g>
</g>
<g>
	<g>
		<path d="M2.39,5.27l0.57-0.33c0,0,2.28-0.42,2.15,1.05c0,0-0.13,0.76-1.16,1.17"/>
	</g>
	<g>
		<path d="M3.97,7.21L3.93,7.12C4.92,6.73,5.06,6,5.06,5.99C5.09,5.69,5,5.44,4.82,5.27C4.29,4.79,3.08,4.97,2.97,4.99L2.41,5.31
			L2.36,5.23L2.95,4.9C3,4.89,4.29,4.66,4.88,5.2C5.09,5.39,5.18,5.66,5.15,6C5.15,6.04,5.01,6.8,3.97,7.21z"/>
	</g>
</g>
<g>
	<g>
		<polyline class="st3" points="2.29,8.83 2.83,8.57 3.12,7.38 		"/>
	</g>
	<g>
		<polygon points="2.31,8.87 2.27,8.78 2.31,7.14 3.07,7.37 3.16,7.39 2.87,8.6 		"/>
	</g>
</g>
<g>
	<g>
		<path class="st3" d="M9.11,5.19l0.56-0.34c0,0,2.27-0.47,2.18,1c0,0-0.11,0.77-1.13,1.2"/>
	</g>
	<g>
		<path d="M10.74,7.09L10.7,7.01c0.98-0.42,0.6-1.07,0.6-1.08c0.02-0.3,0.09-0.33-0.1-0.5c-0.54-0.47-1.35-0.16-1.46-0.14L9.14,5.23
			L9.09,5.15l0.58-0.35C9.72,4.8,11,4.54,11.6,5.06c0.22,0.19,0.32,0.46,0.29,0.8C11.89,5.89,11.77,6.66,10.74,7.09z"/>
	</g>
</g>
<g>
	<g>
		<polyline class="st3" points="9.1,8.75 9.64,8.48 9.89,7.28 		"/>
	</g>
	<g>
		<polygon points="9.12,8.79 9.07,8.7 9.07,7.26 9.85,7.27 9.94,7.29 9.68,8.51 		"/>
	</g>
</g>
<g>
	<g>
		<polyline class="st0" points="4.3,4.1 4.69,3.89 4.94,3.21 4.73,2.91 4.3,4.1 		"/>
	</g>
	<g>
		<path d="M4.3,4.14c-0.01,0-0.02,0-0.03-0.01C4.26,4.12,4.25,4.1,4.26,4.08l0.43-1.19C4.69,2.87,4.7,2.86,4.72,2.86
			c0.02,0,0.04,0.01,0.05,0.02l0.22,0.31C4.99,3.2,4.99,3.22,4.99,3.23L4.73,3.91c0,0.01-0.01,0.02-0.02,0.03l-0.39,0.2
			C4.32,4.14,4.31,4.14,4.3,4.14z M4.74,3.01L4.39,4l0.26-0.14l0.24-0.64L4.74,3.01z"/>
	</g>
</g>
<g>
	<polygon class="st1" points="10.81,0.58 10.64,1.46 11.72,1.44 10.4,2.91 10.2,4.06 12.75,4.02 12.93,3.03 11.48,3.04 12.92,1.32 
		13.1,0.58 	"/>
	<path d="M10.15,4.1l0.21-1.22l0.01-0.01l1.26-1.39L10.59,1.5l0.18-0.96l2.39,0l-0.2,0.81l-0.01,0.01L11.58,3l1.41-0.01l-0.19,1.07
		L10.15,4.1z M10.44,2.93l-0.19,1.09l2.47-0.04l0.16-0.9l-1.49,0.01l1.49-1.78l0.17-0.68l-2.2,0L10.7,1.41l1.13-0.02L10.44,2.93z"/>
</g>
<g>
	<polygon class="st1" points="13.9,0.55 14.83,0.55 15.32,1.8 15.89,0.49 16.84,0.48 15.31,4.08 14.21,4.09 14.75,2.44 	"/>
	<path d="M15.34,4.13l-1.2,0.01l0.56-1.7l-0.87-1.93l1.03-0.01l0.46,1.18l0.54-1.24l1.04-0.01L15.34,4.13z M14.27,4.05l1.02-0.01
		l1.49-3.51l-0.85,0.01l-0.6,1.38L14.8,0.59L13.97,0.6l0.83,1.84L14.27,4.05z"/>
</g>
<g>
	<g>
		<path class="st0" d="M3.42,2.58c0,0-0.1,1.41-2,1.61c0,0,0.93-0.08,1.5-1.33L3.42,2.58z"/>
	</g>
	<g>
		<path d="M3.46,2.54c-0.02,0.52-0.63,1.61-2,1.76c0,0,0-0.05,0-0.05c-0.02,0-0.05-0.02-0.05-0.04c0-0.03,0.01-0.05,0.04-0.05
			L1.45,4.2L1.45,4.15c0,0,0,0,0,0l0,0l0,0c0,0,0,0,0,0c0.04,0,0.92-0.12,1.46-1.3c0-0.01,0.01-0.01,0.01-0.02l0.4-0.27 M2.99,2.9
			C2.71,3.52,2.33,3.85,2.02,4.03c1.03-0.32,1.26-1.12,1.32-1.43L2.99,2.9z"/>
	</g>
</g>
<g>
	<path class="st1" d="M6.66,1.13c0,0-0.24-1.12-2.25-0.48L3.24,4.1l1.01,0l0.42-1.18l0.35,1.21L6.1,4.11L5.4,2.57
		C5.4,2.57,7.02,2.29,6.66,1.13z M5.69,1.73C5.45,1.99,4.97,1.91,4.97,1.91l0.19-0.57l0.31,0C6.02,1.35,5.69,1.73,5.69,1.73z"/>
	<path d="M6.17,4.16L4.99,4.17L4.67,3.06L4.28,4.14l-1.1,0l1.2-3.53L4.4,0.61c0.82-0.26,1.45-0.26,1.87-0.02
		c0.35,0.2,0.42,0.5,0.43,0.53c0.09,0.3,0.06,0.56-0.08,0.79C6.45,2.2,6.13,2.38,5.89,2.47C5.7,2.55,5.54,2.59,5.46,2.61L6.17,4.16z
		 M5.05,4.08l0.98-0.01L5.34,2.54l0.06-0.01c0.01,0,0.85-0.15,1.16-0.66C6.68,1.66,6.7,1.41,6.62,1.14l0,0c0,0-0.07-0.29-0.39-0.48
		C5.83,0.44,5.22,0.44,4.45,0.68L3.31,4.05l0.91,0l0.46-1.28L5.05,4.08z M5.16,1.97c-0.11,0-0.19-0.01-0.19-0.01L4.91,1.94L5.13,1.3
		l0.34,0C5.66,1.3,5.77,1.35,5.81,1.44c0.06,0.14-0.08,0.3-0.1,0.32l0,0C5.57,1.93,5.33,1.96,5.16,1.97z M5.03,1.87
		c0.13,0.01,0.45,0.02,0.62-0.17c0.03-0.04,0.11-0.16,0.08-0.23C5.71,1.42,5.62,1.39,5.47,1.38l-0.27,0L5.03,1.87z"/>
</g>
<g>
	<path class="st3" d="M2.39,5.27L1.36,8.83l0.93-0.01L2.66,7.4c0,0,1.83,0.06,2.09-1.04c0-0.02,0.01-0.04,0.01-0.06
		c0,0,0.23-0.98-0.95-1.03L2.39,5.27z"/>
	<path d="M2.32,8.87L1.3,8.88l1.05-3.65l1.46-0.01c0.4,0.02,0.68,0.14,0.85,0.36C4.9,5.89,4.81,6.29,4.8,6.3
		c0,0.02-0.01,0.04-0.01,0.06C4.68,6.83,4.27,7.17,3.61,7.33C3.2,7.44,2.81,7.44,2.69,7.44L2.32,8.87z M1.42,8.79l0.83-0.01
		l0.37-1.43l0.04,0c0.02,0,1.79,0.05,2.05-1.01c0-0.02,0.01-0.04,0.01-0.06c0-0.01,0.09-0.38-0.13-0.66
		c-0.15-0.2-0.41-0.31-0.78-0.32L2.42,5.32L1.42,8.79z"/>
</g>
<g>
	<g>
		<path d="M3.13,6.16L3.02,6.63c0,0,0.32,0.02,0.58-0.16c0,0,0.33-0.27-0.22-0.3C3.31,6.16,3.13,6.16,3.13,6.16z"/>
	</g>
</g>
<g>
	<path class="st3" d="M9.11,5.19L8.17,8.78L9.1,8.75l0.34-1.44c0,0,1.83,0.02,2.06-1.09c0-0.02,0.01-0.04,0.01-0.06
		c0,0,0.21-0.99-0.97-1.01L9.11,5.19z"/>
	<path d="M8.11,8.82l0.96-3.67l1.46-0.05c0.4,0.01,0.68,0.12,0.86,0.34c0.24,0.31,0.16,0.71,0.16,0.72c0,0.02-0.01,0.04-0.01,0.06
		c-0.1,0.47-0.5,0.82-1.15,1c-0.42,0.11-0.8,0.13-0.92,0.13L9.13,8.79L8.11,8.82z M9.15,5.24L8.23,8.73L9.06,8.7L9.4,7.27l0.04,0
		c0.02,0,1.79,0.01,2.02-1.06c0-0.02,0.01-0.04,0.01-0.06c0-0.01,0.08-0.38-0.14-0.65c-0.15-0.19-0.42-0.3-0.79-0.3L9.15,5.24z"/>
</g>
<g>
	<g>
		<path d="M9.87,6.06l-0.1,0.48c0,0,0.32,0.02,0.57-0.18c0,0,0.33-0.28-0.22-0.3C10.06,6.06,9.87,6.06,9.87,6.06z"/>
	</g>
</g>
<g>
	<g>
		
			<rect x="13.04" y="0.34" transform="matrix(0.8054 -0.5928 0.5928 0.8054 2.3699 7.9955)" class="st5" width="0.64" height="0.1"/>
	</g>
</g>
<g>
	<g>
		<path d="M8.62,2.2c0,0-0.01,0-0.01,0C8.57,2.19,7.98,2.1,7.99,2.07l0.43-0.61c0.01-0.03,0.37-0.07,0.4-0.07
			c0.03,0.01,0.05,0.03,0.05,0.06l-0.18,0.7C8.67,2.18,8.65,2.2,8.62,2.2z"/>
	</g>
	<g>
		<line class="st1" x1="8.8" y1="1.45" x2="8.62" y2="2.15"/>
	</g>
</g>
<g>
	<path class="st1" d="M9.62,4.13L9.41,0.6L7.82,0.59L6.73,4.17l1.02-0.01l0.3-1.11l0.54-0.01L8.53,4.14L9.62,4.13z M8.21,2.14
		l0.16-0.62l0.28,0L8.62,2.14L8.21,2.14z"/>
	<path d="M7.78,4.2L6.67,4.21l1.12-3.66l1.66,0.01l0.21,3.61L8.48,4.18l0.05-1.1L8.08,3.09L7.78,4.2z M6.79,4.12l0.93-0.01L8.01,3
		l0.62-0.01L8.57,4.09l1-0.01l-0.2-3.44L7.86,0.64L6.79,4.12z M8.66,2.18L8.16,2.18l0.18-0.71l0.37,0L8.66,2.18z M8.27,2.09l0.31,0
		l0.03-0.54l-0.2,0L8.27,2.09z"/>
</g>
<g>
	<g>
		<polyline class="st0" points="7.55,8.85 7.91,8.51 7.72,4.9 6.25,4.91 5.72,5.29 		"/>
	</g>
	<g>
		<path d="M7.76,4.84L7.95,8.5c0,0.02,0,0.02-0.01,0.03L7.56,8.89c-0.01,0.01,0-0.03-0.02-0.03c-0.01,0-0.02,0.03-0.03,0.02
			c-0.02-0.02-0.02-0.05,0-0.07l0.34-0.32L7.67,4.95L6.27,4.96L5.75,5.33c-0.02,0.02-0.04,0.02-0.05,0c-0.02-0.02-0.02-0.06,0-0.07
			l0.55-0.39"/>
	</g>
</g>
<g>
	<g>
		<polyline class="st0" points="5.65,8.87 6.14,8.6 6.32,7.81 		"/>
	</g>
	<g>
		<path d="M5.65,8.92c-0.02,0-0.03-0.01-0.04-0.02C5.6,8.88,5.61,8.85,5.63,8.83l0.01-0.36l0.2-0.77c0.01-0.03,0.47,0.07,0.5,0.07
			C6.36,7.77,6.4,7.71,6.39,7.73L6.18,8.61c0,0.01-0.01,0.02-0.02,0.03L5.68,8.92C5.67,8.92,5.66,8.92,5.65,8.92z"/>
	</g>
</g>
<g>
	<g>
		<path d="M6.51,6.92c0,0-0.01,0-0.01,0c-0.03-0.01-0.63-0.1-0.62-0.12L6.3,6.19c0.01-0.03,0.37-0.07,0.4-0.07
			c0.03,0.01,0.05,0.03,0.05,0.06l-0.18,0.7C6.56,6.9,6.54,6.92,6.51,6.92z"/>
	</g>
	<g>
		<line class="st1" x1="6.69" y1="6.17" x2="6.51" y2="6.87"/>
	</g>
</g>
<g>
	<path class="st1" d="M7.51,8.85l-0.2-3.53L5.72,5.31L4.62,8.89l1.02-0.01l0.3-1.11l0.54-0.01L6.42,8.86L7.51,8.85z M6.1,6.86
		l0.16-0.62l0.28,0L6.51,6.86L6.1,6.86z"/>
	<path d="M5.67,8.92L4.56,8.93l1.12-3.66l1.66,0.01l0.21,3.61L6.37,8.9l0.05-1.1L5.97,7.81L5.67,8.92z M4.68,8.84l0.93-0.01
		l0.3-1.11l0.62-0.01L6.47,8.81l1-0.01l-0.2-3.44L5.75,5.36L4.68,8.84z M6.56,6.9L6.05,6.9l0.18-0.71l0.37,0L6.56,6.9z M6.16,6.81
		l0.31,0L6.5,6.28l-0.2,0L6.16,6.81z"/>
</g>
<g>
	<g>
		<polyline class="st0" points="14.16,8.89 14.52,8.55 14.33,4.95 12.86,4.96 12.34,5.33 		"/>
	</g>
	<g>
		<path d="M14.37,4.88l0.19,3.66c0,0.02,0,0.02-0.01,0.03l-0.39,0.36c-0.01,0.01,0-0.03-0.02-0.03c-0.01,0-0.02,0.03-0.03,0.02
			c-0.02-0.02-0.02-0.05,0-0.07l0.34-0.32l-0.19-3.54l-1.41,0.01l-0.52,0.37c-0.02,0.02-0.04,0.02-0.05,0
			c-0.02-0.02-0.02-0.06,0-0.07l0.55-0.39"/>
	</g>
</g>
<g>
	<g>
		<polyline class="st0" points="12.27,8.92 12.75,8.64 12.94,7.86 		"/>
	</g>
	<g>
		<path d="M12.27,8.97c-0.02,0-0.03-0.01-0.04-0.02c-0.01-0.02-0.01-0.05,0.02-0.07l0.01-0.36l0.2-0.77
			c0.01-0.03,0.47,0.07,0.5,0.07c0.03,0.01,0.06-0.06,0.06-0.03L12.8,8.65c0,0.01-0.01,0.02-0.02,0.03l-0.48,0.28
			C12.28,8.96,12.28,8.97,12.27,8.97z"/>
	</g>
</g>
<g>
	<g>
		<path d="M13.12,6.96c0,0-0.01,0-0.01,0c-0.03-0.01-0.63-0.1-0.62-0.12l0.43-0.61c0.01-0.03,0.37-0.07,0.4-0.07
			c0.03,0.01,0.05,0.03,0.05,0.06l-0.18,0.7C13.18,6.94,13.15,6.96,13.12,6.96z"/>
	</g>
	<g>
		<line class="st1" x1="13.3" y1="6.21" x2="13.12" y2="6.91"/>
	</g>
</g>
<g>
	<path class="st1" d="M14.12,8.89l-0.2-3.53l-1.59-0.01l-1.09,3.57l1.02-0.01l0.3-1.11l0.54-0.01L13.03,8.9L14.12,8.89z M12.72,6.9
		l0.16-0.62l0.28,0L13.13,6.9L12.72,6.9z"/>
	<path d="M12.29,8.97l-1.11,0.01l1.12-3.66l1.66,0.01l0.21,3.61l-1.18,0.01l0.05-1.1l-0.46,0.01L12.29,8.97z M11.3,8.89l0.93-0.01
		l0.3-1.11l0.62-0.01l-0.05,1.11l1-0.01l-0.2-3.44L12.36,5.4L11.3,8.89z M13.17,6.95l-0.51-0.01l0.18-0.71l0.37,0L13.17,6.95z
		 M12.77,6.86l0.31,0l0.03-0.54l-0.2,0L12.77,6.86z"/>
</g>
<g>
	<path class="st1" d="M2.19,0.24c0,0-1.48-0.18-1.98,2.11c-0.23,1.04,0.16,1.93,1.16,1.91C1.76,4.25,2.19,4.03,2.43,3.8
		c0.28-0.27,0.49-0.59,0.59-0.94L2.08,2.8c0,0-0.68,0.72-0.85-0.13C1.2,2.52,1.26,1.89,1.65,1.56c0,0,0.41-0.34,0.66-0.07
		C2.43,1.62,2.4,1.91,2.4,1.91l0.88,0.02C3.28,1.93,3.8,0.23,2.19,0.24z"/>
	<path d="M1.35,4.3c-0.4,0-0.73-0.14-0.95-0.41C0.11,3.54,0.02,2.97,0.16,2.34C0.31,1.68,0.63,0.8,1.36,0.4
		c0.42-0.24,0.79-0.21,0.82-0.2c0.46,0,0.8,0.14,1,0.41C3.35,0.82,3.42,1.12,3.4,1.47C3.38,1.74,3.32,1.94,3.32,1.95L3.31,1.98
		L2.35,1.95l0.01-0.05c0,0,0.03-0.28-0.08-0.39c-0.22-0.23-0.59,0.07-0.6,0.08c-0.37,0.32-0.43,0.93-0.4,1.07
		C1.32,2.88,1.4,3,1.51,3.04C1.74,3.1,2.05,2.77,2.05,2.77l0.01-0.01l1.01,0.07L3.06,2.88c-0.1,0.35-0.3,0.67-0.6,0.95
		C2.23,4.05,1.79,4.3,1.37,4.3C1.36,4.3,1.36,4.3,1.35,4.3z M2.1,0.28c-0.13,0-0.4,0.03-0.7,0.2C0.85,0.79,0.45,1.44,0.25,2.36
		C0.11,2.96,0.19,3.5,0.47,3.84c0.21,0.25,0.52,0.38,0.9,0.38C1.75,4.21,2.17,3.99,2.4,3.77c0.27-0.26,0.46-0.55,0.56-0.86L2.1,2.85
		C2.03,2.92,1.73,3.19,1.48,3.12C1.34,3.08,1.24,2.93,1.19,2.68C1.15,2.5,1.23,1.86,1.62,1.52c0.15-0.13,0.5-0.3,0.72-0.07
		c0.11,0.11,0.11,0.32,0.11,0.42l0.8,0.02c0.04-0.15,0.19-0.81-0.12-1.23c-0.18-0.25-0.5-0.37-0.93-0.37l-0.01,0
		C2.18,0.28,2.15,0.28,2.1,0.28z"/>
</g>
</svg>
