<?xml version="1.0" encoding="UTF-8" standalone="no"?>
<svg
   width="14in"
   height="8.5in"
   viewBox="0 0 355.6 215.9"
   version="1.1"
   id="svg8"
   inkscape:version="1.2.2 (732a01da63, 2022-12-09)"
   sodipodi:docname="malla.svg"
   xmlns:inkscape="http://www.inkscape.org/namespaces/inkscape"
   xmlns:sodipodi="http://sodipodi.sourceforge.net/DTD/sodipodi-0.dtd"
   xmlns="http://www.w3.org/2000/svg"
   xmlns:svg="http://www.w3.org/2000/svg"
   xmlns:rdf="http://www.w3.org/1999/02/22-rdf-syntax-ns#"
   xmlns:cc="http://creativecommons.org/ns#"
   xmlns:dc="http://purl.org/dc/elements/1.1/">
  <defs
     id="defs2" />
  <sodipodi:namedview
     id="base"
     pagecolor="#ffffff"
     bordercolor="#666666"
     borderopacity="1.0"
     inkscape:pageopacity="0.0"
     inkscape:pageshadow="2"
     inkscape:zoom="0.2409446"
     inkscape:cx="533.31762"
     inkscape:cy="406.7325"
     inkscape:document-units="mm"
     inkscape:current-layer="layer1"
     inkscape:document-rotation="0"
     showgrid="false"
     inkscape:window-width="1360"
     inkscape:window-height="705"
     inkscape:window-x="-8"
     inkscape:window-y="-8"
     inkscape:window-maximized="1"
     units="in"
     inkscape:showpageshadow="0"
     inkscape:pagecheckerboard="0"
     inkscape:deskcolor="#d1d1d1" />
  <metadata
     id="metadata5">
    <rdf:RDF>
      <cc:Work
         rdf:about="">
        <dc:format>image/svg+xml</dc:format>
        <dc:type
           rdf:resource="http://purl.org/dc/dcmitype/StillImage" />
        <dc:title />
      </cc:Work>
    </rdf:RDF>
  </metadata>
  <g
     inkscape:label="Capa 1"
     inkscape:groupmode="layer"
     id="layer1"
     style="display:inline">
    <path
       d="M 0,0 V 215.9 M 9.4720831,0 V 215.9 M 18.944166,0 V 215.9 M 28.416249,0 V 215.9 M 37.888333,0 V 215.9 M 47.360416,0 V 215.9 M 56.832499,0 V 215.9 M 66.304582,0 V 215.9 M 75.776665,0 V 215.9 M 85.248748,0 V 215.9 M 94.720831,0 V 215.9 M 104.19291,0 V 215.9 M 113.665,0 V 215.9 M 123.13708,0 V 215.9 M 132.60916,0 V 215.9 M 142.08125,0 V 215.9 M 151.55333,0 V 215.9 M 161.02541,0 V 215.9 M 170.4975,0 V 215.9 M 179.96958,0 V 215.9 M 189.44166,0 V 215.9 M 198.91375,0 V 215.9 M 208.38583,0 V 215.9 M 217.85791,0 V 215.9 M 227.33,0 V 215.9 M 236.80208,0 V 215.9 M 246.27416,0 V 215.9 M 255.74624,0 V 215.9 M 265.21833,0 V 215.9 M 274.69041,0 V 215.9 M 284.16249,0 V 215.9 M 293.63458,0 V 215.9 M 303.10666,0 V 215.9 M 312.57874,0 V 215.9 M 322.05083,0 V 215.9 M 331.52291,0 V 215.9 M 340.99499,0 V 215.9 M 350.46708,0 V 215.9 M 0,0 H 355.6 M 0,9.4720831 H 355.6 M 0,18.944166 H 355.6 M 0,28.416249 H 355.6 M 0,37.888333 H 355.6 M 0,47.360416 H 355.6 M 0,56.832499 H 355.6 M 0,66.304582 H 355.6 M 0,75.776665 H 355.6 M 0,85.248748 H 355.6 M 0,94.720831 H 355.6 M 0,104.19291 H 355.6 M 0,113.665 H 355.6 M 0,123.13708 H 355.6 M 0,132.60916 H 355.6 M 0,142.08125 H 355.6 M 0,151.55333 H 355.6 M 0,161.02541 H 355.6 M 0,170.4975 H 355.6 M 0,179.96958 H 355.6 M 0,189.44166 H 355.6 M 0,198.91375 H 355.6 M 0,208.38583 h 355.6"
       style="display:inline;fill:none;stroke:#ffffff;stroke-width:0.343958px;stroke-opacity:1;opacity:0.2020202"
       id="path965" />
  </g>
</svg>
